{
  "accessors": [
    {
      "bufferView": 2,
      "componentType": 5126,
      "count": 65532,
      "max": [
        0.98722201585769653,
        0.98722201585769653,
        0.9975770115852356
      ],
      "min": [
        -0.87180501222610474,
        -0.97135001420974731,
        -0.9975770115852356
      ],
      "type": "VEC3"
    },
    {
      "bufferView": 2,
      "byteOffset": 786384,
      "componentType": 5126,
      "count": 65532,
      "max": [
        0.99999392032623291,
        0.99999392032623291,
        1
      ],
      "min": [
        -0.88422203063964844,
        -0.9841158390045166,
        -1
      ],
      "type": "VEC3"
    },
    {
      "bufferView": 3,
      "componentType": 5126,
      "count": 65532,
      "max": [
        0.99999880790710449,
        0.99999886751174927,
        0.20535016059875488,
        1
      ],
      "min": [
        -0.99999892711639404,
        -0.99999880790710449,
        -0.2036985456943512,
        1
      ],
      "type": "VEC4"
    },
    {
      "bufferView": 1,
      "componentType": 5126,
      "count": 65532,
      "max": [
        2.8386991024017334,
        1.6066869497299194
      ],
      "min": [
        -1.8386989831924438,
        -0.60668599605560303
      ],
      "type": "VEC2"
    },
    {
      "bufferView": 0,
      "componentType": 5125,
      "count": 383157,
      "max": [
        65531
      ],
      "min": [
        0
      ],
      "type": "SCALAR"
    },
    {
      "bufferView": 2,
      "byteOffset": 1572768,
      "componentType": 5126,
      "count": 64767,
      "max": [
        0.98454397916793823,
        0.78355497121810913,
        0.9975770115852356
      ],
      "min": [
        -0.98722201585769653,
        -0.98722302913665771,
        -0.9975770115852356
      ],
      "type": "VEC3"
    },
    {
      "bufferView": 2,
      "byteOffset": 2349972,
      "componentType": 5126,
      "count": 64767,
      "max": [
        0.9973188042640686,
        0.79370462894439697,
        1
      ],
      "min": [
        -0.99999392032623291,
        -0.99999392032623291,
        -1
      ],
      "type": "VEC3"
    },
    {
      "bufferView": 3,
      "byteOffset": 1048512,
      "componentType": 5126,
      "count": 64767,
      "max": [
        0.99999850988388062,
        0.99999856948852539,
        0.20535016059875488,
        1
      ],
      "min": [
        -0.99994361400604248,
        -0.99999850988388062,
        -0.2036985456943512,
        1
      ],
      "type": "VEC4"
    },
    {
      "bufferView": 1,
      "byteOffset": 524256,
      "componentType": 5126,
      "count": 64767,
      "max": [
        2.8295431137084961,
        1.6066869497299194
      ],
      "min": [
        -1.8386989831924438,
        -0.60668599605560303
      ],
      "type": "VEC2"
    },
    {
      "bufferView": 0,
      "byteOffset": 1532628,
      "componentType": 5125,
      "count": 378699,
      "max": [
        64766
      ],
      "min": [
        0
      ],
      "type": "SCALAR"
    }
  ],
  "asset": {
    "extras": {
      "author": "Meshgrab (https://sketchfab.com/HiFi010)",
      "license": "CC-BY-4.0 (http://creativecommons.org/licenses/by/4.0/)",
      "source": "https://sketchfab.com/3d-models/07-pbr-sphere-1aa41ce6385844be8c0bc4d43675fb97",
      "title": "07 Pbr Sphere"
    },
    "generator": "Sketchfab-8.55.0",
    "version": "2.0"
  },
  "bufferViews": [
    {
      "buffer": 0,
      "byteLength": 3047424,
      "byteOffset": 0,
      "name": "floatBufferViews",
      "target": 34963
    },
    {
      "buffer": 0,
      "byteLength": 1042392,
      "byteOffset": 3047424,
      "byteStride": 8,
      "name": "floatBufferViews",
      "target": 34962
    },
    {
      "buffer": 0,
      "byteLength": 3127176,
      "byteOffset": 4089816,
      "byteStride": 12,
      "name": "floatBufferViews",
      "target": 34962
    },
    {
      "buffer": 0,
      "byteLength": 2084784,
      "byteOffset": 7216992,
      "byteStride": 16,
      "name": "floatBufferViews",
      "target": 34962
    }
  ],
  "buffers": [
    {
      "byteLength": 9301776,
      "uri": "scene.bin"
    }
  ],
  "images": [
    {
      "uri": "textures/mat_sphere_baseColor.png"
    },
    {
      "uri": "textures/mat_sphere_metallicRoughness.png"
    },
    {
      "uri": "textures/mat_sphere_normal.png"
    }
  ],
  "materials": [
    {
      "doubleSided": true,
      "name": "mat_sphere",
      "normalTexture": {
        "index": 2,
        "scale": 1,
        "texCoord": 0
      },
      "occlusionTexture": {
        "index": 1,
        "strength": 1,
        "texCoord": 0
      },
      "pbrMetallicRoughness": {
        "baseColorFactor": [
          1,
          1,
          1,
          1
        ],
        "baseColorTexture": {
          "index": 0,
          "texCoord": 0
        },
        "metallicFactor": 0,
        "metallicRoughnessTexture": {
          "index": 1,
          "texCoord": 0
        },
        "roughnessFactor": 1
      }
    }
  ],
  "meshes": [
    {
      "primitives": [
        {
          "attributes": {
            "NORMAL": 1,
            "POSITION": 0,
            "TANGENT": 2,
            "TEXCOORD_0": 3
          },
          "indices": 4,
          "material": 0,
          "mode": 4
        }
      ]
    },
    {
      "primitives": [
        {
          "attributes": {
            "NORMAL": 6,
            "POSITION": 5,
            "TANGENT": 7,
            "TEXCOORD_0": 8
          },
          "indices": 9,
          "material": 0,
          "mode": 4
        }
      ]
    }
  ],
  "nodes": [
    {
      "children": [
        1
      ],
      "name": "RootNode (gltf orientation matrix)",
      "rotation": [
        -0.70710678118654746,
        -0,
        -0,
        0.70710678118654757
      ]
    },
    {
      "children": [
        2
      ],
      "name": "RootNode (model correction matrix)"
    },
    {
      "children": [
        3,
        4
      ],
      "name": "07_pbr_sphere.obj.cleaner.materialmerger.gles"
    },
    {
      "mesh": 0,
      "name": ""
    },
    {
      "mesh": 1,
      "name": ""
    }
  ],
  "samplers": [
    {
      "magFilter": 9729,
      "minFilter": 9987,
      "wrapS": 10497,
      "wrapT": 10497
    }
  ],
  "scene": 0,
  "scenes": [
    {
      "name": "OSG_Scene",
      "nodes": [
        0
      ]
    }
  ],
  "textures": [
    {
      "sampler": 0,
      "source": 0
    },
    {
      "sampler": 0,
      "source": 1
    },
    {
      "sampler": 0,
      "source": 2
    }
  ]
}

